# xmcd
#
# Track frame offsets: 
#        150
#        16641
#        30338
#        55436
#        68116
#        84294
#        105763
#        125718
#        137485
#        147576
#        164673
#        185695
#        197353
#        219504
#        230289
#        249491
#        274019
#        290914
#        302583
#        326943
#
# Disc length: 4478 seconds
#
# Revision: 1
# Processed by: cddbd v1.4PL0 Copyright (c) Steve Scherf et al.
# Submitted via: ExactAudioCopy v0.95a3
#
DISCID=20117c14
DTITLE=STEREO and VIDEO - Blues Station Play
DYEAR=2001
DGENRE=Blues
TTITLE0=On My Way To Heaven
TTITLE1=Yack, Yack, Yack
TTITLE2=Kansas City
TTITLE3=If You Take Me Back
TTITLE4=It Hurt's Me Too
TTITLE5=I'm Talkin' To You
TTITLE6=Our Love Is Running Out
TTITLE7=Chicago
TTITLE8=I Want To Be Loved
TTITLE9=Superharp
TTITLE10=Hoochie Coochie Man
TTITLE11=Just About Crazy
TTITLE12=Caldonia
TTITLE13=Good To Go
TTITLE14=Who's Been Sleepin' In My Bed
TTITLE15=Life Will Be Better
TTITLE16=My Baby
TTITLE17=Walkin' On Fire
TTITLE18=Sweet Home Chicago
TTITLE19=Bad Luck Card
EXTD=
EXTT0=
EXTT1=
EXTT2=
EXTT3=
EXTT4=
EXTT5=
EXTT6=
EXTT7=
EXTT8=
EXTT9=
EXTT10=
EXTT11=
EXTT12=
EXTT13=
EXTT14=
EXTT15=
EXTT16=
EXTT17=
EXTT18=
EXTT19=
PLAYORDER=
